<!DOCTYPE svg PUBLIC "-//W3C//DTD SVG 1.1//EN" "http://www.w3.org/Graphics/SVG/1.1/DTD/svg11.dtd">
<!-- Uploaded to: SVG Repo, www.svgrepo.com, Transformed by: SVG Repo Mixer Tools -->
<svg fill="#ffffff" height="64px" width="64px" version="1.1" id="Layer_1" xmlns="http://www.w3.org/2000/svg" xmlns:xlink="http://www.w3.org/1999/xlink" viewBox="0 0 512.004 512.004" xml:space="preserve" stroke="#ffffff">
<g id="SVGRepo_bgCarrier" stroke-width="0"/>
<g id="SVGRepo_tracerCarrier" stroke-linecap="round" stroke-linejoin="round"/>
<g id="SVGRepo_iconCarrier"> <g> <g> <g> <path d="M512.001,21.333C512.001,9.557,502.465,0,490.668,0H21.334C9.537,0,0.001,9.557,0.001,21.333V128h512V21.333z M85.334,106.667c-11.776,0-21.333-9.557-21.333-21.333S73.558,64,85.334,64s21.333,9.557,21.333,21.333 S97.11,106.667,85.334,106.667z M149.334,106.667c-11.776,0-21.333-9.557-21.333-21.333S137.558,64,149.334,64 s21.333,9.557,21.333,21.333S161.11,106.667,149.334,106.667z M213.334,106.667c-11.776,0-21.333-9.557-21.333-21.333 S201.558,64,213.334,64s21.333,9.557,21.333,21.333S225.11,106.667,213.334,106.667z"/> <path d="M0.003,170.671v320c0,11.776,9.536,21.333,21.333,21.333H490.67c11.797,0,21.333-9.557,21.333-21.333v-320H0.003z M230.19,420.57l-9.28,8.448c-11.968,11.989-28.885,18.987-46.933,18.987c-18.027,0-34.944-6.997-47.616-19.691 c-12.693-12.672-19.691-29.589-19.691-47.637c0-18.027,6.997-34.944,19.691-47.637l47.339-47.36 c12.395-12.395,29.803-19.947,47.787-20.715c19.307-0.875,36.757,5.803,49.6,18.603c8.341,8.341,8.341,21.845,0,30.187 c-8.341,8.32-21.845,8.32-30.165,0c-5.781-5.76-13.547-6.336-17.621-6.165c-7.424,0.32-14.507,3.328-19.435,8.256l-47.339,47.36 c-4.629,4.629-7.189,10.837-7.189,17.472c0,6.635,2.539,12.843,7.189,17.472c9.259,9.301,25.707,9.259,34.923,0l9.984-9.131 c8.747-7.893,22.229-7.296,30.144,1.408C239.513,399.13,238.894,412.634,230.19,420.57z M364.313,306.97l-50.304,50.304 c-12.437,12.459-28.864,19.264-46.336,19.264c-0.427,0-0.853,0-1.28-0.021c-17.536-0.32-34.155-7.445-46.805-20.096 c-8.341-8.32-8.341-21.845,0-30.165c8.32-8.341,21.824-8.32,30.165-0.021c4.779,4.8,11.008,7.509,17.429,7.637 c6.016-0.064,12.181-2.283,16.661-6.763l50.304-50.304c4.629-4.629,7.189-10.837,7.189-17.472c0-6.635-2.539-12.843-7.189-17.472 c-9.259-9.323-25.685-9.259-34.944-0.021l-10.005,9.195c-8.683,7.957-22.187,7.36-30.144-1.301 c-7.957-8.683-7.36-22.187,1.323-30.144l9.323-8.555c12.032-12.053,28.949-19.029,46.997-19.029 c18.005,0,34.923,6.976,47.616,19.669c12.693,12.693,19.691,29.611,19.691,47.659 C384.003,277.359,377.006,294.276,364.313,306.97z"/> </g> </g> </g> </g>
</svg>